<?xml version="1.0" standalone="no"?>
<!DOCTYPE svg PUBLIC "-//W3C//DTD SVG 20010904//EN"
 "http://www.w3.org/TR/2001/REC-SVG-20010904/DTD/svg10.dtd">
<svg version="1.0" xmlns="http://www.w3.org/2000/svg"
 width="540.000000pt" height="540.000000pt" viewBox="0 0 540.000000 540.000000"
 preserveAspectRatio="xMidYMid meet">
<metadata>
Created by potrace 1.11, written by Peter Selinger 2001-2013
</metadata>
<g transform="translate(0.000000,540.000000) scale(0.100000,-0.100000)"
fill="#000000" stroke="none">
<path d="M182 4049 c-13 -5 -29 -14 -36 -21 -17 -18 -69 -108 -62 -108 4 0 0
-16 -8 -35 -16 -37 -11 -46 28 -52 11 -2 27 -10 35 -17 9 -8 26 -17 38 -20 26
-8 78 -55 86 -77 3 -9 1 -22 -3 -29 -22 -36 36 -69 109 -62 36 4 40 7 103 117
l65 113 -31 56 c-30 54 -36 59 -126 101 -97 46 -148 55 -198 34z"/>
<path d="M537 3992 c-21 -23 -21 -29 7 -72 l23 -35 110 0 c83 -1 110 2 106 11
-5 13 -73 44 -96 44 -8 0 -31 16 -53 35 -44 39 -73 44 -97 17z"/>
<path d="M497 3743 l-67 -116 27 -46 c31 -54 39 -61 67 -55 12 2 45 5 74 5 65
1 113 -28 138 -84 22 -47 26 -50 59 -35 21 9 28 9 34 -1 6 -9 30 24 75 99 l66
113 -55 99 c-81 142 -74 138 -225 138 l-125 0 -68 -117z"/>
<path d="M923 3823 c-13 -2 -23 -7 -23 -11 1 -4 22 -43 48 -87 l48 -80 138 -3
138 -3 -28 24 c-16 13 -50 38 -76 55 -26 18 -50 41 -53 52 -7 22 -22 25 -45
10 -10 -6 -30 0 -66 21 -28 16 -53 28 -55 28 -2 -1 -14 -4 -26 -6z"/>
<path d="M1670 3635 c-54 -30 -65 -31 -123 -5 -42 19 -49 19 -86 6 -34 -11
-44 -11 -67 0 -33 17 -68 18 -82 1 -8 -9 5 -40 49 -117 33 -58 67 -110 75
-116 19 -15 261 -15 273 0 5 6 36 58 69 115 57 100 66 128 39 128 -7 0 -32 3
-57 6 -37 5 -53 2 -90 -18z"/>
<path d="M1003 3602 c-6 -4 -40 -56 -75 -117 l-63 -110 40 -72 c32 -58 48 -75
83 -92 23 -12 53 -21 67 -21 13 0 37 -11 53 -25 25 -21 40 -25 95 -25 l66 0
33 58 c18 31 41 71 50 87 56 95 58 79 -16 207 l-67 115 -127 1 c-70 0 -133 -2
-139 -6z"/>
<path d="M1828 3536 c-22 -39 -53 -91 -67 -116 l-27 -45 66 -115 66 -115 136
-3 136 -3 66 114 c36 63 66 118 66 121 0 4 -27 54 -61 112 -53 91 -64 104 -88
104 -14 0 -36 -7 -48 -15 -19 -13 -25 -12 -65 9 -28 15 -61 23 -91 23 l-48 0
-41 -71z"/>
<path d="M2200 3585 c0 -5 24 -50 53 -102 l52 -93 59 0 59 0 -19 21 c-10 12
-31 27 -46 35 -21 11 -28 22 -28 45 0 25 -6 33 -42 49 -24 11 -53 27 -65 36
-13 9 -23 13 -23 9z"/>
<path d="M1367 3240 l-67 -117 67 -117 68 -116 135 0 135 0 68 117 67 116 -55
95 c-30 52 -55 98 -55 102 0 4 -8 14 -17 22 -14 12 -46 15 -148 15 l-130 0
-68 -117z"/>
<path d="M2286 3321 c-13 -20 -44 -73 -70 -118 l-47 -81 68 -114 68 -113 135
-3 135 -2 64 112 c35 61 64 116 64 122 0 22 -94 175 -118 190 -13 9 -41 18
-63 21 -22 2 -50 9 -64 14 -13 5 -53 9 -87 9 -61 -1 -63 -2 -85 -37z"/>
<path d="M2666 3291 c-3 -5 12 -41 35 -80 l41 -71 109 0 c60 0 109 4 109 9 0
15 -78 49 -92 40 -8 -5 -26 7 -53 34 -22 24 -58 48 -80 55 -22 7 -45 15 -52
18 -6 3 -14 1 -17 -5z"/>
<path d="M3475 3160 c-11 -3 -36 -13 -55 -22 -19 -9 -51 -18 -70 -21 -52 -7
-64 -14 -78 -46 -15 -34 -29 -41 -97 -48 -27 -3 -53 -10 -56 -15 -4 -6 7 -35
25 -64 l31 -54 135 0 135 0 68 117 c62 107 66 118 53 138 -14 22 -50 28 -91
15z"/>
<path d="M3943 3122 c-13 -2 -23 -6 -23 -9 0 -4 28 -55 63 -115 l62 -108 132
0 132 0 20 29 21 29 -43 11 c-71 20 -82 20 -122 0 -51 -24 -48 -24 -69 11 -26
45 -115 144 -134 150 -9 3 -27 4 -39 2z"/>
<path d="M1170 3095 c0 -8 7 -36 16 -62 9 -26 17 -84 19 -129 2 -68 8 -94 35
-153 18 -39 36 -71 40 -71 4 0 13 12 21 28 7 15 24 44 37 65 62 102 64 108 47
126 -8 10 -15 20 -15 24 0 3 -18 35 -40 69 -22 35 -40 69 -40 76 0 6 -4 12
-10 12 -5 0 -10 7 -10 15 0 11 -12 15 -50 15 -37 0 -50 -4 -50 -15z m75 -15
c3 -5 1 -10 -4 -10 -6 0 -11 5 -11 10 0 6 2 10 4 10 3 0 8 -4 11 -10z"/>
<path d="M1872 3101 c-20 -15 -52 -80 -46 -97 4 -14 3 -15 -4 -6 -7 10 -19 -3
-46 -52 -20 -37 -36 -71 -36 -76 0 -5 25 -50 55 -101 30 -50 55 -96 55 -101 0
-18 49 -26 168 -26 103 0 123 2 118 14 -3 7 -1 13 5 11 9 -2 33 36 88 135 11
20 26 46 33 58 9 14 10 23 3 28 -6 4 -22 28 -35 55 -14 26 -29 47 -33 47 -5 0
-6 3 -4 8 3 4 -10 29 -27 57 l-32 50 -127 0 c-70 1 -131 -1 -135 -4z m263 -61
c3 -6 -1 -7 -9 -4 -18 7 -21 14 -7 14 6 0 13 -4 16 -10z m-50 -88 c-3 -3 -11
0 -18 7 -9 10 -8 11 6 5 10 -3 15 -9 12 -12z m39 -38 c3 -8 2 -12 -4 -9 -6 3
-10 10 -10 16 0 14 7 11 14 -7z m-234 -114 c0 -5 -5 -10 -11 -10 -5 0 -7 5 -4
10 3 6 8 10 11 10 2 0 4 -4 4 -10z"/>
<path d="M2674 2994 l-67 -116 16 -31 c10 -18 25 -45 35 -62 9 -16 31 -52 47
-80 16 -27 33 -53 38 -56 5 -4 67 -6 139 -5 l130 1 67 115 66 115 -23 43 c-19
34 -28 41 -45 37 -14 -4 -30 1 -43 13 -29 28 -59 42 -86 42 -13 0 -33 6 -43
14 -17 13 -18 16 -5 42 8 16 16 32 18 37 2 4 -37 7 -86 7 l-90 0 -68 -116z"/>
<path d="M3546 2997 c-36 -63 -66 -117 -66 -120 0 -11 122 -221 132 -228 5 -3
67 -6 139 -6 l129 -1 41 72 c23 39 52 88 65 108 13 21 24 43 24 50 0 7 -28 63
-63 123 l-63 110 -79 0 -80 0 0 -35 c0 -25 -5 -36 -18 -38 -13 -3 -22 7 -34
37 -12 31 -21 41 -39 41 -18 0 -35 -21 -88 -113z"/>
<path d="M1411 2810 c-68 -109 -89 -148 -84 -154 4 -3 2 -6 -4 -6 -15 0 -22
-34 -11 -54 5 -9 14 -13 20 -10 6 4 8 3 5 -3 -4 -6 2 -22 13 -36 11 -14 20
-32 20 -41 0 -9 5 -16 10 -16 5 0 9 -3 8 -7 -2 -5 8 -27 22 -51 l24 -43 135 3
135 3 53 90 c29 50 51 96 48 103 -3 7 -1 10 4 7 6 -3 14 2 20 12 7 12 4 24 -8
43 -9 14 -26 42 -36 63 -11 21 -28 47 -38 58 -10 10 -15 19 -12 19 7 0 -27 59
-35 61 -3 1 -63 2 -133 3 l-128 1 -28 -45z m159 -10 c0 -5 -5 -10 -11 -10 -5
0 -7 5 -4 10 3 6 8 10 11 10 2 0 4 -4 4 -10z m117 -155 c0 -8 -4 -12 -9 -9 -5
3 -6 10 -3 15 9 13 12 11 12 -6z m80 -78 c0 -8 -6 -14 -14 -14 -9 0 -10 4 -2
14 6 7 12 13 14 13 1 0 2 -6 2 -13z"/>
<path d="M2294 2833 c-8 -13 -12 -29 -8 -36 4 -7 4 -9 -1 -5 -5 5 -32 -31 -61
-79 -50 -84 -51 -89 -38 -115 8 -16 19 -28 25 -28 6 0 8 -4 5 -9 -3 -5 4 -24
17 -42 12 -19 33 -55 47 -81 l24 -47 139 0 c89 -1 136 3 132 9 -3 6 -2 10 4
10 15 0 43 58 35 73 -4 7 -3 9 1 4 9 -8 74 88 75 110 0 6 5 13 10 15 12 4 -10
58 -23 58 -5 0 -6 4 -3 9 3 5 -4 20 -17 33 -12 14 -23 30 -25 37 -1 6 -15 32
-32 59 l-29 47 -131 0 c-126 1 -131 0 -146 -22z m231 -33 c3 -5 1 -10 -4 -10
-6 0 -11 5 -11 10 0 6 2 10 4 10 3 0 8 -4 11 -10z m-238 -245 c0 -8 -4 -12 -9
-9 -5 3 -6 10 -3 15 9 13 12 11 12 -6z"/>
<path d="M3175 2845 c-11 -9 -47 -67 -114 -187 l-20 -37 67 -116 67 -115 135
0 136 0 67 116 67 115 -68 117 -67 117 -129 0 c-74 0 -133 -4 -141 -10z"/>
<path d="M4041 2845 c-5 -5 -36 -58 -69 -117 l-62 -106 66 -116 66 -116 137 0
137 0 57 100 c32 56 55 105 52 110 -3 4 -18 11 -35 15 -37 8 -45 33 -30 95 11
47 11 52 -17 97 l-30 48 -132 0 c-78 0 -136 -4 -140 -10z"/>
<path d="M1829 2537 c-23 -40 -53 -90 -67 -111 -30 -48 -29 -51 52 -188 l57
-98 134 0 133 0 66 114 c36 62 66 116 66 120 0 4 -29 57 -65 119 l-64 112
-135 2 -136 2 -41 -72z"/>
<path d="M2742 2601 c-10 -7 -132 -216 -132 -227 0 -4 30 -58 66 -121 l66
-113 133 0 134 0 66 111 c36 61 65 118 65 127 0 9 -11 32 -24 51 -13 20 -42
68 -65 107 l-40 71 -130 0 c-72 0 -134 -3 -139 -6z"/>
<path d="M3613 2601 c-11 -7 -133 -216 -133 -227 0 -3 30 -58 66 -120 l66
-114 134 0 133 0 55 93 c89 152 88 129 13 259 l-65 113 -130 1 c-72 1 -134 -2
-139 -5z"/>
<path d="M4427 2513 c-13 -21 -36 -61 -52 -89 l-28 -51 67 -117 68 -117 136 3
136 3 62 107 62 107 -27 32 c-27 32 -28 32 -89 26 -34 -4 -61 -3 -61 1 4 27
-1 32 -21 20 -17 -11 -22 -10 -30 2 -7 12 -12 12 -22 2 -18 -18 -28 -15 -28 8
0 28 -40 64 -87 79 -21 7 -43 15 -50 17 -7 3 -23 -12 -36 -33z"/>
<path d="M1445 2348 c-21 -12 -67 -97 -62 -116 2 -9 -7 -39 -20 -65 -13 -26
-21 -53 -17 -59 4 -6 3 -8 -3 -5 -6 4 -13 1 -16 -6 -6 -16 17 -50 27 -40 4 4
4 0 1 -9 -3 -8 0 -22 7 -29 8 -8 27 -40 43 -71 l29 -56 89 0 c48 0 90 -2 93
-5 3 -3 19 -1 35 3 18 5 29 5 29 -1 0 -16 30 5 46 32 7 13 19 36 26 52 7 15
16 27 20 27 4 0 8 5 8 12 0 6 14 33 31 59 34 53 37 41 -32 154 -16 28 -36 64
-44 82 -8 17 -20 35 -27 40 -20 12 -38 12 -38 1 0 -7 -4 -7 -13 0 -8 7 -18 7
-27 2 -8 -5 -19 -6 -24 -2 -15 9 -145 9 -161 0z m-40 -188 c3 -5 1 -10 -4 -10
-6 0 -11 5 -11 10 0 6 2 10 4 10 3 0 8 -4 11 -10z"/>
<path d="M2329 2352 c-24 -3 -62 -57 -122 -172 -4 -8 -14 -25 -21 -38 -12 -21
-8 -33 53 -138 l66 -115 138 3 139 3 65 113 65 113 -67 114 -67 115 -91 1
c-51 0 -101 1 -112 2 -11 1 -32 1 -46 -1z"/>
<path d="M3178 2349 c-6 -4 -7 -12 -3 -19 5 -9 4 -11 -3 -6 -7 4 -16 -2 -22
-16 -6 -13 -24 -45 -40 -73 -70 -117 -72 -123 -52 -134 9 -6 13 -11 9 -11 -11
0 25 -60 36 -60 4 0 6 -4 3 -9 -3 -5 2 -19 12 -32 9 -13 26 -41 36 -61 14 -27
26 -38 43 -39 42 -1 123 0 131 1 4 1 32 1 62 0 54 -1 55 0 75 37 11 21 22 40
25 43 3 3 11 16 18 30 7 14 21 40 32 58 11 18 17 38 14 44 -4 6 -2 8 4 4 35
-22 -1 77 -45 122 -7 7 -13 20 -13 28 0 8 -4 14 -10 14 -5 0 -9 3 -8 8 3 14
-14 42 -23 36 -5 -3 -6 1 -3 9 3 8 0 18 -7 22 -14 9 -257 12 -271 4z m226 -27
c3 -5 -1 -9 -9 -9 -8 0 -12 4 -9 9 3 4 7 8 9 8 2 0 6 -4 9 -8z m-154 -82 c0
-5 -5 -10 -11 -10 -5 0 -7 5 -4 10 3 6 8 10 11 10 2 0 4 -4 4 -10z m154 2 c3
-5 -1 -9 -9 -9 -8 0 -12 4 -9 9 3 4 7 8 9 8 2 0 6 -4 9 -8z m-113 -79 c13 -16
12 -17 -3 -4 -17 13 -22 21 -14 21 2 0 10 -8 17 -17z"/>
<path d="M4046 2346 c-16 -13 -89 -146 -81 -146 3 0 -6 -12 -20 -27 -14 -15
-25 -36 -25 -47 0 -28 60 -127 72 -120 6 4 8 2 4 -4 -6 -10 21 -69 45 -98 12
-14 58 -24 64 -14 3 4 20 4 39 0 19 -4 37 -5 40 -3 3 3 34 5 69 5 60 0 66 2
78 26 8 15 28 50 45 77 17 28 34 57 38 65 4 8 13 26 21 39 13 23 6 52 -16 71
-3 3 -9 13 -12 24 -6 16 -10 16 -25 5 -15 -13 -16 -12 -3 3 11 15 8 26 -23 83
-22 39 -44 65 -54 66 -110 4 -134 3 -138 -3 -3 -5 -10 -5 -16 -2 -18 11 -89
11 -102 0z m159 -26 c3 -5 1 -10 -4 -10 -6 0 -11 5 -11 10 0 6 2 10 4 10 3 0
8 -4 11 -10z m38 -35 c-3 -9 -8 -14 -10 -11 -3 3 -2 9 2 15 9 16 15 13 8 -4z
m47 -39 c0 -3 -4 -8 -10 -11 -5 -3 -10 -1 -10 4 0 6 5 11 10 11 6 0 10 -2 10
-4z m33 -41 c-3 -9 -8 -14 -10 -11 -3 3 -2 9 2 15 9 16 15 13 8 -4z m-358 -74
c3 -5 2 -12 -3 -15 -5 -3 -9 1 -9 9 0 17 3 19 12 6z m95 -7 c0 -8 -19 -13 -24
-6 -3 5 1 9 9 9 8 0 15 -2 15 -3z m70 -118 c0 -3 -4 -8 -10 -11 -5 -3 -10 -1
-10 4 0 6 5 11 10 11 6 0 10 -2 10 -4z"/>
<path d="M4848 2238 c-58 -104 -72 -148 -47 -148 6 0 8 3 5 8 -2 4 2 22 10 40
12 30 17 33 43 27 23 -5 34 0 58 23 30 30 53 89 53 136 0 22 -4 26 -29 26 -26
0 -34 -10 -93 -112z"/>
<path d="M1805 1995 c-37 -64 -64 -122 -61 -130 3 -8 16 -15 29 -15 14 0 30
-7 37 -15 7 -8 16 -12 22 -9 5 3 20 -2 35 -11 21 -14 29 -15 49 -4 13 7 26 20
29 31 4 10 13 25 22 33 13 13 19 30 22 57 2 16 77 30 113 20 19 -5 47 -7 62
-5 31 6 34 -11 10 -45 -12 -18 -13 -26 -4 -37 15 -18 42 -19 57 -4 8 8 13 8
17 0 4 -6 11 -11 17 -11 22 0 5 45 -56 149 l-66 111 -133 0 -134 0 -67 -115z"/>
<path d="M2730 2085 c-4 -11 -5 -24 -2 -30 3 -5 2 -7 -3 -3 -8 7 -39 -35 -65
-87 -8 -16 -23 -43 -33 -58 -16 -24 -17 -32 -7 -57 7 -17 15 -30 19 -30 4 0
13 -16 20 -35 7 -19 16 -33 20 -31 4 3 8 -5 8 -17 1 -12 7 -23 13 -25 5 -2 10
-10 10 -17 0 -8 7 -18 16 -23 9 -5 15 -13 15 -18 -2 -13 55 -17 187 -11 36 1
62 -2 62 -8 1 -5 10 1 21 14 11 13 17 31 15 38 -3 8 -1 11 4 8 5 -3 15 7 22
22 7 15 15 30 18 33 4 3 21 32 40 64 26 47 31 62 22 75 -6 9 -19 31 -28 49 -9
17 -20 32 -23 32 -4 0 -8 6 -8 13 0 6 -16 37 -34 67 l-34 55 -134 0 c-124 0
-134 -1 -141 -20z"/>
<path d="M3613 2101 c-11 -9 -32 -42 -46 -73 -6 -16 -14 -28 -18 -28 -7 0 -23
-50 -20 -63 1 -5 -2 -6 -7 -3 -5 3 -17 -9 -27 -27 -17 -32 -17 -34 4 -75 12
-23 24 -42 27 -42 3 0 2 5 -2 12 -4 7 -3 8 5 4 6 -4 9 -12 6 -17 -3 -5 12 -40
35 -78 l41 -69 67 2 c37 2 84 7 104 13 26 7 38 7 41 0 1 -5 23 4 46 21 48 35
93 90 85 103 -3 5 0 9 5 9 6 0 11 7 11 15 0 8 4 15 8 15 4 0 13 14 20 32 9 26
9 35 -2 47 -7 9 -17 26 -21 39 -3 12 -10 20 -14 18 -4 -3 -7 3 -8 13 -1 10
-15 38 -32 63 -17 25 -31 51 -31 57 0 12 0 12 -47 16 -20 2 -33 -2 -33 -9 0
-7 -3 -8 -8 -1 -7 11 -176 16 -189 6z m167 -56 c0 -2 -6 -8 -13 -14 -10 -8
-14 -7 -14 2 0 8 6 14 14 14 7 0 13 -1 13 -2z m27 -50 c0 -8 -4 -12 -9 -9 -5
3 -6 10 -3 15 9 13 12 11 12 -6z m-166 -42 c13 -16 12 -17 -3 -4 -17 13 -22
21 -14 21 2 0 10 -8 17 -17z"/>
<path d="M4476 2090 c-7 -8 -39 -60 -70 -115 l-58 -100 23 -45 c40 -78 60
-102 80 -97 26 7 35 -11 14 -27 -17 -12 -17 -14 0 -40 l18 -27 135 3 136 3 63
108 c35 60 63 114 63 120 0 7 -16 38 -35 70 -19 32 -35 60 -35 63 0 3 -43 74
-57 94 -2 2 -62 5 -134 5 -105 1 -132 -2 -143 -15z"/>
<path d="M1254 2022 c-17 -15 -39 -42 -48 -60 -17 -32 -17 -35 1 -54 29 -32
69 -48 102 -42 24 5 31 3 31 -9 0 -26 33 -30 53 -6 15 19 16 25 4 43 -8 12
-31 51 -51 89 -21 37 -43 67 -49 67 -7 0 -26 -13 -43 -28z"/>
<path d="M4850 2008 c0 -18 29 -57 30 -41 0 6 -5 15 -10 18 -6 4 -8 10 -5 15
3 5 1 11 -5 15 -5 3 -10 0 -10 -7z"/>
<path d="M2363 1852 c-73 -4 -84 -22 -42 -69 18 -21 44 -47 58 -58 14 -11 31
-26 37 -34 6 -7 23 -13 37 -13 34 0 35 -21 2 -36 -28 -13 -33 -32 -9 -32 16 0
71 -38 67 -46 -12 -18 1 -25 35 -20 56 9 74 8 83 -5 11 -18 42 -2 35 18 -4 10
-4 14 0 10 4 -4 16 7 26 24 11 18 16 35 11 38 -5 3 -17 23 -26 44 -10 20 -23
37 -29 37 -6 0 -9 3 -5 6 3 3 -3 20 -12 37 -10 18 -27 47 -37 65 -11 17 -24
30 -31 27 -7 -2 -15 0 -18 4 -2 5 -19 5 -37 2 -18 -4 -46 -5 -63 -2 -16 3 -53
5 -82 3z m164 -47 c0 -8 -4 -12 -9 -9 -5 3 -6 10 -3 15 9 13 12 11 12 -6z
m-83 -43 c3 -5 -1 -9 -9 -9 -8 0 -12 4 -9 9 3 4 7 8 9 8 2 0 6 -4 9 -8z"/>
<path d="M3146 1797 c-16 -28 -46 -80 -67 -115 l-38 -63 20 -37 c12 -20 28
-45 37 -55 14 -15 17 -16 38 -2 13 8 41 15 62 15 32 0 41 4 45 21 5 18 11 20
33 15 14 -4 33 -14 41 -21 18 -19 20 -19 50 4 23 19 26 19 59 4 29 -14 37 -15
58 -3 19 10 29 10 39 1 16 -12 24 -6 46 36 10 20 4 37 -55 138 l-66 115 -136
0 -137 0 -29 -53z"/>
<path d="M4017 1804 c-29 -48 -27 -48 40 -1 35 25 47 28 80 22 21 -4 57 -7 79
-6 29 0 47 -6 59 -20 10 -10 23 -19 29 -19 6 0 23 -7 38 -14 l28 -15 -25 50
-25 49 -138 0 -137 0 -28 -46z"/>
<path d="M4901 1828 c-7 -12 -25 -42 -39 -67 -13 -25 -38 -67 -54 -94 -15 -26
-26 -52 -23 -57 2 -4 25 -11 50 -14 39 -6 50 -14 78 -52 17 -24 43 -47 57 -50
14 -4 37 -15 52 -25 35 -25 46 -24 60 5 6 15 21 26 36 28 22 3 28 11 40 58 7
30 18 59 23 65 5 5 9 17 9 27 0 9 7 21 16 26 15 8 13 15 -17 51 -36 45 -86 81
-114 81 -9 0 -28 9 -42 20 -37 29 -113 28 -132 -2z"/>
<path d="M2710 1568 c-34 -60 -35 -67 -16 -93 14 -19 15 -19 36 0 12 11 24 19
26 17 12 -9 104 -32 129 -32 17 1 48 12 70 25 22 14 53 25 68 25 39 0 43 21
13 69 l-26 41 -135 0 -135 0 -30 -52z"/>
</g>
</svg>
